HIERARCHY
ROOT hip
{
  OFFSET 0 0 0
  CHANNELS 6 Xposition Yposition Zposition Zrotation Yrotation Xrotation
  JOINT abdomen
  {
    OFFSET 0 20.6881 -0.73152
    CHANNELS 3 Zrotation Xrotation Yrotation
    JOINT chest
    {
      OFFSET 0 11.7043 -0.48768
      CHANNELS 3 Zrotation Xrotation Yrotation
      JOINT neck
      {
        OFFSET 0 22.1894 -2.19456
        CHANNELS 3 Zrotation Xrotation Yrotation
        JOINT head
        {
          OFFSET -0.24384 7.07133 1.2192
          CHANNELS 3 Zrotation Xrotation Yrotation
          JOINT leftEye
          {
            OFFSET 4.14528 8.04674 8.04672
            CHANNELS 3 Zrotation Xrotation Yrotation
            End Site
            {
              OFFSET 1 0 0
            }
          }
          JOINT rightEye
          {
            OFFSET -3.6576 8.04674 8.04672
            CHANNELS 3 Zrotation Xrotation Yrotation
            End Site
            {
              OFFSET 1 0 0
            }
          }
        }
      }
      JOINT rCollar
      {
        OFFSET -2.68224 19.2634 -4.8768
        CHANNELS 3 Zrotation Xrotation Yrotation
        JOINT rShldr
        {
          OFFSET -8.77824 -1.95073 1.46304
          CHANNELS 3 Zrotation Xrotation Yrotation
          JOINT rForeArm
          {
            OFFSET -28.1742 -1.7115 0.48768
            CHANNELS 3 Zrotation Xrotation Yrotation
            JOINT rHand
            {
              OFFSET -22.5879 0.773209 7.07136
              CHANNELS 3 Zrotation Xrotation Yrotation
              JOINT rThumb1
              {
                OFFSET -1.2192 -0.487915 3.41376
                CHANNELS 3 Zrotation Xrotation Yrotation
                JOINT rThumb2
                {
                  OFFSET -3.37035 -0.52449 3.41376
                  CHANNELS 3 Zrotation Xrotation Yrotation
                  End Site
                  {
                    OFFSET -1.78271 -1.18214 1.43049
                  }
                }
              }
              JOINT rIndex1
              {
                OFFSET -7.75947 0.938293 5.60832
                CHANNELS 3 Zrotation Xrotation Yrotation
                JOINT rIndex2
                {
                  OFFSET -2.54057 -0.884171 1.56538
                  CHANNELS 3 Zrotation Xrotation Yrotation
                  End Site
                  {
                    OFFSET -1.62519 -0.234802 1.16502
                  }
                }
              }
              JOINT rMid1
              {
                OFFSET -8.24714 1.18213 3.41376
                CHANNELS 3 Zrotation Xrotation Yrotation
                JOINT rMid2
                {
                  OFFSET -3.10165 -0.590103 1.0647
                  CHANNELS 3 Zrotation Xrotation Yrotation
                  End Site
                  {
                    OFFSET -2.48547 -0.328903 0.83742
                  }
                }
              }
              JOINT rRing1
              {
                OFFSET -8.82822 0.546677 1.51678
                CHANNELS 3 Zrotation Xrotation Yrotation
                JOINT rRing2
                {
                  OFFSET -2.60934 -0.819778 -0.0198488
                  CHANNELS 3 Zrotation Xrotation Yrotation
                  End Site
                  {
                    OFFSET -2.33842 -0.294052 0.168128
                  }
                }
              }
              JOINT rPinky1
              {
                OFFSET -8.27202 -0.0477905 -0.4584
                CHANNELS 3 Zrotation Xrotation Yrotation
                JOINT rPinky2
                {
                  OFFSET -1.82734 -0.647385 -0.700984
                  CHANNELS 3 Zrotation Xrotation Yrotation
                  End Site
                  {
                    OFFSET -1.69225 -0.51767 -0.607171
                  }
                }
              }
            }
          }
        }
      }
      JOINT lCollar
      {
        OFFSET 2.68224 19.2634 -4.8768
        CHANNELS 3 Zrotation Xrotation Yrotation
        JOINT lShldr
        {
          OFFSET 8.77824 -1.95073 1.46304
          CHANNELS 3 Zrotation Xrotation Yrotation
          JOINT lForeArm
          {
            OFFSET 28.1742 -1.7115 0.48768
            CHANNELS 3 Zrotation Xrotation Yrotation
            JOINT lHand
            {
              OFFSET 22.5879 0.773209 7.07136
              CHANNELS 3 Zrotation Xrotation Yrotation
              JOINT lThumb1
              {
                OFFSET 1.2192 -0.487915 3.41376
                CHANNELS 3 Zrotation Xrotation Yrotation
                JOINT lThumb2
                {
                  OFFSET 3.37035 -0.52449 3.41376
                  CHANNELS 3 Zrotation Xrotation Yrotation
                  End Site
                  {
                    OFFSET 1.78271 -1.18214 1.43049
                  }
                }
              }
              JOINT lIndex1
              {
                OFFSET 7.75947 0.938293 5.60832
                CHANNELS 3 Zrotation Xrotation Yrotation
                JOINT lIndex2
                {
                  OFFSET 2.54057 -0.884171 1.56538
                  CHANNELS 3 Zrotation Xrotation Yrotation
                  End Site
                  {
                    OFFSET 1.62519 -0.234802 1.16502
                  }
                }
              }
              JOINT lMid1
              {
                OFFSET 8.24714 1.18213 3.41376
                CHANNELS 3 Zrotation Xrotation Yrotation
                JOINT lMid2
                {
                  OFFSET 3.10165 -0.590103 1.0647
                  CHANNELS 3 Zrotation Xrotation Yrotation
                  End Site
                  {
                    OFFSET 2.48547 -0.328903 0.83742
                  }
                }
              }
              JOINT lRing1
              {
                OFFSET 8.82822 0.546677 1.51678
                CHANNELS 3 Zrotation Xrotation Yrotation
                JOINT lRing2
                {
                  OFFSET 2.60934 -0.819778 -0.0198488
                  CHANNELS 3 Zrotation Xrotation Yrotation
                  End Site
                  {
                    OFFSET 2.33842 -0.294052 0.168128
                  }
                }
              }
              JOINT lPinky1
              {
                OFFSET 8.27202 -0.0477905 -0.4584
                CHANNELS 3 Zrotation Xrotation Yrotation
                JOINT lPinky2
                {
                  OFFSET 1.82734 -0.647385 -0.700984
                  CHANNELS 3 Zrotation Xrotation Yrotation
                  End Site
                  {
                    OFFSET 1.69225 -0.51767 -0.607171
                  }
                }
              }
            }
          }
        }
      }
    }
  }
  JOINT rButtock
  {
    OFFSET -8.77824 4.35084 1.2192
    CHANNELS 3 Zrotation Xrotation Yrotation
    JOINT rThigh
    {
      OFFSET 0 -1.70687 -2.19456
      CHANNELS 3 Zrotation Xrotation Yrotation
      JOINT rShin
      {
        OFFSET 0 -36.8199 0.73152
        CHANNELS 3 Zrotation Xrotation Yrotation
        JOINT rFoot
        {
          OFFSET 0.73152 -45.1104 -5.12064
          CHANNELS 3 Zrotation Xrotation Yrotation
          End Site
          {
            OFFSET -1.1221 -3.69964 12.103
          }
        }
      }
    }
  }
  JOINT lButtock
  {
    OFFSET 8.77824 4.35084 1.2192
    CHANNELS 3 Zrotation Xrotation Yrotation
    JOINT lThigh
    {
      OFFSET 0 -1.70687 -2.19456
      CHANNELS 3 Zrotation Xrotation Yrotation
      JOINT lShin
      {
        OFFSET 0 -36.8199 0.73152
        CHANNELS 3 Zrotation Xrotation Yrotation
        JOINT lFoot
        {
          OFFSET -0.73152 -45.1104 -5.12064
          CHANNELS 3 Zrotation Xrotation Yrotation
          End Site
          {
            OFFSET 1.1221 -3.69964 12.103
          }
        }
      }
    }
  }
}
MOTION
Frames:	4
Frame Time:	0.03333
0.8173020556569099 -2.4672966450452805 1.0362851433455944 -135.798095703125 82.8333511352539 -171.89796447753906 3.662226438522339 18.491010665893555 13.358458518981934 -5.739490509033203 -14.410322189331055 4.2638115882873535 1.3482273817062378 14.396333694458008 12.574359893798828 0.9225977063179016 -30.861572265625 26.492755889892578 -0.3484858274459839 0.031228836625814438 -0.49965164065361023 -0.031141705811023712 0.32301175594329834 -0.5696149468421936 0.40286505222320557 -0.009210922755300999 -0.15050269663333893 20.75860023498535 56.46820831298828 33.369712829589844 -28.467350006103516 -38.93687438964844 82.11803436279297 -0.30804699659347534 9.270820617675781 1.1851952075958252 0.29873231053352356 0.13588349521160126 -0.7000505924224854 -0.4192892014980316 -0.04019005596637726 0.0007485365495085716 -0.11295368522405624 0.38964372873306274 -0.09073369204998016 7.096046447753906 5.465456962585449 0.6506470441818237 -0.36859890818595886 0.06968273967504501 -0.2055828720331192 3.025388717651367 1.844914436340332 0.40937528014183044 -0.04950099438428879 -0.3115716874599457 0.07383880019187927 9.761775970458984 0.6234379410743713 -0.21721120178699493 0.2544705867767334 0.5313679575920105 -0.09610017389059067 2.4116835594177246 -1.1635876893997192 -0.46912747621536255 0.11993308365345001 -0.6978676915168762 -1.0489614009857178 -57.326534271240234 17.490217208862305 -23.98529815673828 27.428377151489258 -42.16108322143555 -87.32556915283203 2.9157614707946777 -37.502403259277344 6.935985088348389 0.32813599705696106 -0.3423185348510742 -0.25544095039367676 -0.4053807854652405 0.12405216693878174 -0.45985665917396545 -0.2996755540370941 -0.0030092454981058836 0.17506122589111328 -7.450850486755371 6.222337245941162 -0.1469544619321823 -0.4650851786136627 -0.6981279850006104 0.3999931216239929 -2.3528971672058105 0.6111814379692078 -0.3408127725124359 -0.0761275663971901 -0.05732659995555878 0.7947801351547241 -9.759283065795898 0.8342833518981934 -0.15109486877918243 -0.5456353425979614 -0.7661829590797424 0.4528048634529114 -2.460179567337036 -1.4303826093673706 0.9254197478294373 -0.2884392738342285 0.24134154617786407 -0.19181841611862183 -49.634681701660156 -43.37273025512695 -43.49346923828125 -4.1667280197143555 82.66870880126953 5.728745937347412 -2.392580270767212 -7.8532023429870605 -9.938542366027832 0.07442864775657654 -0.17042694985866547 -0.5520794987678528 77.67572784423828 -63.90217971801758 64.84188842773438 13.683451652526855 87.2479248046875 -14.664382934570312 -0.24938803911209106 -15.717652320861816 2.3633532524108887
0.8164849132299423 -2.5148725137114525 1.1010264046490192 -120.33357238769531 83.8517074584961 168.41061401367188 3.1194088459014893 18.596389770507812 13.105199813842773 -5.74445104598999 -14.389483451843262 4.156121253967285 1.2949129343032837 14.499645233154297 11.777494430541992 1.3653596639633179 -31.396533966064453 25.65541648864746 -0.569277822971344 0.15623407065868378 -0.15953107178211212 0.038279589265584946 0.22866453230381012 -0.44681814312934875 0.5851560235023499 0.07269208878278732 0.17659834027290344 20.694164276123047 55.38222122192383 33.45259475708008 -28.629180908203125 -39.14286422729492 82.1389389038086 -0.19807446002960205 8.401931762695312 1.4106476306915283 0.33056479692459106 -0.06741303950548172 -0.479995995759964 -0.43002477288246155 0.009263614192605019 0.3653242588043213 -0.11101994663476944 -0.02587783709168434 0.13412967324256897 6.969422340393066 5.38275671005249 0.7130441069602966 -0.37711864709854126 0.39347368478775024 -0.15081030130386353 2.882847785949707 1.6993037462234497 0.31968122720718384 0.048395171761512756 -0.6182671189308167 0.04685380682349205 10.141519546508789 0.857735276222229 -0.09925426542758942 0.8707275390625 0.4949614703655243 -0.12974613904953003 2.260211229324341 -1.1177712678909302 -0.7184627056121826 0.2450745850801468 -0.2926068902015686 -0.7431326508522034 -57.405155181884766 18.533708572387695 -23.76191520690918 27.292638778686523 -43.031002044677734 -88.6041259765625 3.109804630279541 -38.034461975097656 7.006349563598633 0.3667307496070862 -0.20948760211467743 -0.038584936410188675 -0.16440661251544952 -0.1144685223698616 -0.4359893798828125 0.04763606935739517 0.043214380741119385 0.18024751543998718 -7.492045879364014 5.995006561279297 -0.20238657295703888 -0.5950640439987183 -0.5299683809280396 0.20339977741241455 -2.5049970149993896 0.4720594882965088 -0.36102330684661865 0.1235571950674057 -0.2118934541940689 0.473857045173645 -9.952098846435547 1.0901378393173218 0.18953756988048553 -0.09437453746795654 -0.7089129090309143 0.5658965706825256 -2.3183445930480957 -1.4602165222167969 0.9677374362945557 -0.3481588661670685 -0.10350623726844788 -0.14402611553668976 -48.12108612060547 -43.30118179321289 -43.0589485168457 -4.592792510986328 82.6141357421875 6.4670186042785645 -2.4986305236816406 -6.725979328155518 -10.61911392211914 -0.00030934251844882965 -0.23033638298511505 -0.2906687259674072 73.58744049072266 -63.466304779052734 61.1278190612793 13.856022834777832 87.30165100097656 -14.855696678161621 -0.31484314799308777 -14.941898345947266 2.6178133487701416
0.8205601945519447 -2.64684334397316 1.1627405881881714 -141.80789184570312 78.40420532226562 -172.4397430419922 3.8183021545410156 17.4242000579834 10.96808910369873 -4.799030303955078 -13.151118278503418 3.5415852069854736 1.3615977764129639 14.126856803894043 11.539369583129883 0.9400542378425598 -32.433326721191406 24.315908432006836 -0.13313528895378113 -0.25888770818710327 -0.6918960213661194 -0.5356698632240295 0.2330830693244934 -0.47932958602905273 0.02978415973484516 -0.11656247824430466 -0.20090192556381226 34.505096435546875 55.198787689208984 16.890817642211914 -28.526084899902344 -39.12049865722656 81.42517852783203 -0.3906579613685608 8.560675621032715 1.2082659006118774 0.5239571928977966 -0.3579014837741852 -0.379869282245636 -0.36640632152557373 0.24914522469043732 0.44724076986312866 -0.2882898151874542 0.13143809139728546 -0.15966778993606567 7.743190288543701 5.249994277954102 0.5028505325317383 -0.22607839107513428 0.3206596076488495 -0.04094592481851578 2.82295298576355 1.5329365730285645 1.0198026895523071 -0.07010766863822937 -0.38049909472465515 -0.43531423807144165 10.003655433654785 0.5343896746635437 -0.06237964704632759 -0.13137026131153107 0.272676944732666 0.7689138650894165 2.56916880607605 -1.576969861984253 -0.7195906043052673 0.2831587493419647 -0.2893241047859192 -0.5293667912483215 -56.00867462158203 19.92974853515625 -29.509700775146484 28.117996215820312 -40.105464935302734 -83.5799560546875 3.0606956481933594 -37.787879943847656 6.947118282318115 0.3254697024822235 0.06151652708649635 0.18150711059570312 0.18427252769470215 0.3891753554344177 -0.24079564213752747 -0.22846360504627228 0.11960769444704056 0.19691234827041626 -7.648656368255615 6.099167823791504 -0.24239403009414673 -0.4248300790786743 -0.49128609895706177 0.5988159775733948 -2.7329630851745605 0.6680593490600586 -0.34572872519493103 -0.006227564066648483 -0.3618864119052887 0.6781896352767944 -9.707263946533203 1.0613723993301392 -0.14589165151119232 -0.26591652631759644 -0.800340473651886 0.2395905703306198 -2.667184829711914 -1.1915086507797241 0.8825324773788452 -0.28568294644355774 0.5186275839805603 -0.37716391682624817 -39.34456253051758 -40.61109924316406 -31.9439640045166 -1.380982756614685 71.50820922851562 3.2864737510681152 -1.3831043243408203 0.060473985970020294 -9.108915328979492 -0.05919375270605087 -0.1473638117313385 -0.4134828746318817 56.040225982666016 -66.13323211669922 46.11824417114258 5.056067943572998 81.88274383544922 -6.2854084968566895 1.2785614728927612 -16.2153377532959 5.806263446807861
0.8225753903388977 -2.7438050135970116 1.2431038543581963 -160.2056121826172 75.7235336303711 -158.88796997070312 3.4677085876464844 18.399869918823242 9.545303344726562 -4.2369866371154785 -13.32528018951416 3.2286040782928467 1.3046923875808716 13.396142959594727 12.598666191101074 0.005750173702836037 -32.82592010498047 24.556930541992188 -0.21625010669231415 -0.6050272583961487 -1.1576250791549683 -0.3945712149143219 0.31667059659957886 -0.3757936656475067 -0.3429725766181946 -0.2610483169555664 -0.2713337540626526 40.41255569458008 52.382293701171875 8.43477725982666 -28.417848587036133 -39.11427307128906 81.98362731933594 -0.5345837473869324 9.479901313781738 0.7998608946800232 0.08706439286470413 -0.4699937701225281 -0.22141222655773163 -0.17684052884578705 0.5886473655700684 0.28237617015838623 0.08837278187274933 -0.4379449486732483 -0.33355996012687683 7.689117431640625 5.461132526397705 0.2645387351512909 -0.18484532833099365 0.28191933035850525 0.16727332770824432 3.1208114624023438 1.395006537437439 0.642866313457489 0.18831735849380493 -0.38457077741622925 -0.420139342546463 10.043448448181152 0.32914677262306213 0.436091810464859 -0.4644068479537964 0.31064796447753906 0.5286263227462769 2.1691582202911377 -1.3339787721633911 -0.6714668273925781 0.11811287701129913 -0.13372589647769928 -0.20112809538841248 -54.91691589355469 20.207529067993164 -33.77873992919922 27.54174041748047 -40.10324478149414 -83.65032958984375 3.2645034790039062 -39.831199645996094 7.620619297027588 0.2945820987224579 0.23168979585170746 -0.323453426361084 0.2446596324443817 0.5935540795326233 -0.062214676290750504 -0.35331103205680847 0.2783048748970032 0.20245763659477234 -7.914680004119873 6.7107672691345215 -0.2441793531179428 -0.5534653663635254 -0.42563435435295105 0.30932652950286865 -2.6389200687408447 0.6093124151229858 0.08314167708158493 -0.1600956916809082 -0.47564324736595154 0.5916879773139954 -9.921229362487793 0.7166825532913208 -0.34696483612060547 -0.199621319770813 -0.9402964115142822 0.05199450999498367 -2.741868495941162 -1.3633615970611572 0.7046967148780823 0.1626669317483902 0.7598714828491211 -0.3569079339504242 -36.31956100463867 -41.310707092285156 -30.06618309020996 -0.12408458441495895 68.92244720458984 1.8381789922714233 -0.8881915807723999 4.653079986572266 -9.130495071411133 0.06097064167261124 -0.11001875251531601 -0.7673035264015198 39.63372039794922 -67.23194885253906 34.40892028808594 4.791406631469727 80.8143539428711 -6.2968010902404785 1.930390477180481 -16.86502456665039 6.395771503448486
